<?xml version="1.0" standalone="no"?>
<!DOCTYPE svg PUBLIC "-//W3C//DTD SVG 20010904//EN"
 "http://www.w3.org/TR/2001/REC-SVG-20010904/DTD/svg10.dtd">
<svg version="1.0" xmlns="http://www.w3.org/2000/svg"
 width="450.000000pt" height="450.000000pt" viewBox="0 0 450.000000 450.000000"
 preserveAspectRatio="xMidYMid meet">
<metadata>
Created by potrace 1.11, written by Peter Selinger 2001-2013
</metadata>
<g transform="translate(0.000000,450.000000) scale(0.100000,-0.100000)"
fill="#000000" stroke="none">
<path d="M1340 4240 c-112 -23 -225 -119 -282 -240 -40 -86 -52 -125 -67 -229
-8 -54 -6 -216 3 -261 3 -14 8 -38 12 -55 21 -111 98 -283 167 -375 47 -63
140 -154 177 -175 119 -66 166 -80 261 -79 77 0 94 4 150 32 117 58 196 157
247 308 24 72 26 93 26 239 1 144 -2 170 -27 260 -106 381 -396 631 -667 575z"/>
<path d="M2980 4236 c-249 -73 -440 -321 -505 -656 -16 -78 -18 -270 -3 -331
5 -24 11 -51 13 -59 20 -90 92 -212 160 -272 72 -65 192 -105 284 -95 321 35
596 439 585 863 -6 260 -124 471 -298 536 -79 29 -167 34 -236 14z"/>
<path d="M307 3090 c-197 -62 -313 -253 -303 -499 8 -180 73 -328 201 -456
123 -124 243 -173 394 -162 306 23 471 388 333 737 -112 284 -392 454 -625
380z"/>
<path d="M3965 3092 c-96 -29 -165 -71 -245 -152 -288 -289 -264 -773 46 -931
112 -56 244 -52 383 13 84 40 204 157 256 251 180 325 87 712 -195 812 -70 25
-174 28 -245 7z"/>
<path d="M2075 2509 c-223 -54 -496 -210 -720 -410 -124 -111 -301 -300 -377
-404 -4 -5 -18 -23 -31 -40 -75 -95 -175 -260 -238 -390 -146 -303 -178 -571
-88 -747 50 -97 180 -195 310 -232 91 -26 109 -28 244 -31 116 -3 222 7 315
30 14 3 38 9 53 11 16 3 111 32 210 64 338 109 449 128 622 104 91 -12 168
-33 375 -100 281 -93 399 -114 590 -109 151 4 164 6 268 41 179 60 294 185
327 355 9 45 7 164 -4 229 -89 537 -662 1250 -1231 1530 -88 44 -197 86 -245
96 -149 30 -268 31 -380 3z"/>
</g>
</svg>
